<svg xmlns="http://www.w3.org/2000/svg"
 version="1.1" 
 xmlns:xlink="http://www.w3.org/1999/xlink"
  xmlns:svgjs="http://svgjs.dev/svgjs" 
  width="2000"
  height="2812" 
  viewBox="0 0 2000 2812">
  <g transform="matrix(1,0,0,1,-0.3977099015202157,0.00046354448932106607)">
  <svg viewBox="0 0 128 180"
   data-background-color="#dedede"
    preserveAspectRatio="xMidYMid meet"
     height="2812" width="2000" 
     xmlns="http://www.w3.org/2000/svg"
      xmlns:xlink="http://www.w3.org/1999/xlink">
      <g id="tight-bounds" transform="matrix(1,0,0,1,0.025453433697293804,-0.000029672122366264375)"><svg viewBox="0 0 127.94889237625833 180" height="180" width="127.94889237625833"><g><svg viewBox="0 0 128.07679904296288 180.17994059643058" height="180" width="127.94889237625833"><g><svg viewBox="0 0 128.07679904296288 180.17994059643058" height="180.17994059643058" width="128.07679904296288"><g><path d="M0 180.18v-180.18h128.077v180.18z" fill="#000000" stroke="transparent" stroke-width="0" rx="0%" data-fill-palette-color="tertiary"></path><path d="M3.283 176.897v-173.614h121.511v173.614z" fill="#ffffff" stroke="transparent" stroke-width="0" rx="0%" data-fill-palette-color="quaternary"></path><path d="M9.85 170.33v-160.48h108.377v160.48z" fill="#000000" stroke="transparent" stroke-width="0" data-fill-palette-color="tertiary"></path></g><g transform="matrix(1,0,0,1,19.699740000000006,19.69974)"><svg viewBox="0 0 88.67731904296286 140.7804605964306" height="140.7804605964306" width="88.67731904296286"><g><svg viewBox="0 0 88.67731904296286 100.57561757280003" height="100.57561757280003" width="88.67731904296286"><g transform="matrix(1,0,0,1,0,0)"><svg width="88.67731904296286" viewBox="0.5099999904632568 -34.810001373291016 30.940000534057617 35.08000183105469" height="100.57561757280003" data-palette-color="#dedede"><path d="M13.45-1Q12.82 0.27 11.77 0.27 10.72 0.27 10.72-0.81L10.72-0.81Q10.72-1.46 11.35-2.25L11.35-2.25Q12.62-3.76 13.77-5.74L13.77-5.74 15.01-7.96 0.51-34.55 14.75-34.55 21.73-19.82 27.98-30.93Q28.66-32.2 29.15-33.51 29.64-34.81 30.44-34.81L30.44-34.81Q31.45-34.81 31.45-33.81L31.45-33.81Q31.45-33.23 31.01-32.47L31.01-32.47 14.31-2.69Q14.04-2.2 13.87-1.88L13.87-1.88 13.45-1Z" opacity="1" transform="matrix(1,0,0,1,0,0)" fill="#ffffff" class="undefined-text-0" data-fill-palette-color="quaternary" id="text-0"></path></svg></g></svg></g><g transform="matrix(1,0,0,1,0,107.14219757280003)"><svg viewBox="0 0 88.67731904296286 33.63826302363058" height="33.63826302363058" width="88.67731904296286"><g transform="matrix(1,0,0,1,0,0)"><svg width="88.67731904296286" viewBox="0.7799999713897705 -32.63999938964844 109.86000061035156 41.66999816894531" height="33.63826302363058" data-palette-color="#dedede"><path d="M6.08 9.03Q4.66 9.03 4.66 8.33L4.66 8.33Q4.66 8.15 4.86 7.62L4.86 7.62 8.5-1.22 0.9-21.48Q0.88-21.58 0.83-21.77 0.78-21.95 0.78-22.05L0.78-22.05Q0.78-22.39 1.25-22.58 1.71-22.78 2.66-22.78L2.66-22.78 3-22.78Q4.47-22.78 4.74-22.09L4.74-22.09 9.16-10.33Q9.74-8.79 10.55-5.96L10.55-5.96 10.62-5.96 11.13-7.57Q11.25-7.93 11.55-8.83 11.84-9.72 12.08-10.33L12.08-10.33 16.41-22.09Q16.63-22.78 18.19-22.78L18.19-22.78 18.33-22.78Q20.04-22.78 20.04-22.05L20.04-22.05Q20.04-21.88 19.92-21.46L19.92-21.46 8.79 8.13Q8.4 9.03 6.74 9.03L6.74 9.03 6.08 9.03ZM30.42 0.24Q27.1 0.24 25.05-1.39 23-3.03 23-6.25L23-6.25Q23-9.64 25.07-11.36 27.15-13.09 30.14-13.59 33.13-14.09 37.4-14.16L37.4-14.16 37.4-16.21Q37.4-17.85 36.29-18.84 35.18-19.82 32.64-19.82L32.64-19.82Q30.71-19.82 29.26-19.37 27.81-18.92 26.54-18.29L26.54-18.29Q26-18.02 25.88-18.02L25.88-18.02Q25.59-18.02 25.23-18.44 24.88-18.87 24.62-19.41 24.37-19.95 24.37-20.19L24.37-20.19Q24.37-20.75 25.52-21.41 26.68-22.07 28.56-22.51 30.44-22.95 32.5-22.95L32.5-22.95Q36.57-22.95 38.82-21.17 41.06-19.38 41.06-16.16L41.06-16.16 41.06-6.42Q41.06-3.59 41.32-2.33 41.58-1.07 41.58-0.95L41.58-0.95Q41.58-0.42 40.76-0.18 39.94 0.05 39.23 0.05L39.23 0.05Q38.65 0.05 38.37-0.61 38.09-1.27 37.82-2.51L37.82-2.51 37.72-3Q36.38-1.51 34.56-0.63 32.74 0.24 30.42 0.24L30.42 0.24ZM30.62-2.91Q32.76-2.91 34.28-3.69 35.79-4.47 37.4-5.91L37.4-5.91 37.4-11.04Q34.18-11.01 32.1-10.77 30.03-10.52 28.47-9.53 26.9-8.54 26.9-6.47L26.9-6.47Q26.9-4.74 27.84-3.82 28.78-2.91 30.62-2.91L30.62-2.91ZM50.27 0.07Q48.54 0.07 48.54-0.88L48.54-0.88 48.54-31.69Q48.54-32.64 50.27-32.64L50.27-32.64 50.44-32.64Q52.2-32.64 52.2-31.69L52.2-31.69 52.2-19.97Q53.47-21.26 55.18-22.11 56.88-22.95 58.81-22.95L58.81-22.95Q61.55-22.95 63.64-21.41 65.72-19.87 65.72-15.94L65.72-15.94 65.72-0.88Q65.72 0.07 63.99 0.07L63.99 0.07 63.82 0.07Q62.06 0.07 62.06-0.88L62.06-0.88 62.06-15.58Q62.06-17.55 60.94-18.68 59.81-19.8 57.64-19.8L57.64-19.8Q56.2-19.8 54.99-19.12 53.78-18.43 52.99-17.64 52.2-16.85 52.2-16.75L52.2-16.75 52.2-0.88Q52.2 0.07 50.44 0.07L50.44 0.07 50.27 0.07ZM75.15 9.03Q73.73 9.03 73.73 8.33L73.73 8.33Q73.73 8.15 73.93 7.62L73.93 7.62 77.56-1.22 69.97-21.48Q69.95-21.58 69.9-21.77 69.85-21.95 69.85-22.05L69.85-22.05Q69.85-22.39 70.31-22.58 70.78-22.78 71.73-22.78L71.73-22.78 72.07-22.78Q73.54-22.78 73.8-22.09L73.8-22.09 78.22-10.33Q78.81-8.79 79.61-5.96L79.61-5.96 79.69-5.96 80.2-7.57Q80.32-7.93 80.62-8.83 80.91-9.72 81.15-10.33L81.15-10.33 85.47-22.09Q85.69-22.78 87.26-22.78L87.26-22.78 87.4-22.78Q89.11-22.78 89.11-22.05L89.11-22.05Q89.11-21.88 88.99-21.46L88.99-21.46 77.86 8.13Q77.47 9.03 75.81 9.03L75.81 9.03 75.15 9.03ZM99.49 0.24Q96.17 0.24 94.12-1.39 92.07-3.03 92.07-6.25L92.07-6.25Q92.07-9.64 94.14-11.36 96.22-13.09 99.21-13.59 102.2-14.09 106.47-14.16L106.47-14.16 106.47-16.21Q106.47-17.85 105.36-18.84 104.25-19.82 101.71-19.82L101.71-19.82Q99.78-19.82 98.33-19.37 96.88-18.92 95.61-18.29L95.61-18.29Q95.07-18.02 94.95-18.02L94.95-18.02Q94.65-18.02 94.3-18.44 93.95-18.87 93.69-19.41 93.43-19.95 93.43-20.19L93.43-20.19Q93.43-20.75 94.59-21.41 95.75-22.07 97.63-22.51 99.51-22.95 101.56-22.95L101.56-22.95Q105.64-22.95 107.89-21.17 110.13-19.38 110.13-16.16L110.13-16.16 110.13-6.42Q110.13-3.59 110.39-2.33 110.64-1.07 110.64-0.95L110.64-0.95Q110.64-0.42 109.83-0.18 109.01 0.05 108.3 0.05L108.3 0.05Q107.71 0.05 107.43-0.61 107.15-1.27 106.88-2.51L106.88-2.51 106.79-3Q105.44-1.51 103.63-0.63 101.81 0.24 99.49 0.24L99.49 0.24ZM99.68-2.91Q101.83-2.91 103.34-3.69 104.86-4.47 106.47-5.91L106.47-5.91 106.47-11.04Q103.25-11.01 101.17-10.77 99.1-10.52 97.53-9.53 95.97-8.54 95.97-6.47L95.97-6.47Q95.97-4.74 96.91-3.82 97.85-2.91 99.68-2.91L99.68-2.91Z" opacity="1" transform="matrix(1,0,0,1,0,0)" fill="#ffffff" class="undefined-text-1" data-fill-palette-color="quaternary" id="text-1"></path></svg></g></svg></g></svg></g></svg></g><g></g></svg></g><defs></defs></svg><rect width="127.94889237625833" height="180" fill="none" stroke="none" visibility="hidden"></rect></g></svg></g></svg>